<svg width="1268" height="203" viewBox="0 0 1268 203" fill="none" xmlns="http://www.w3.org/2000/svg">
<path d="M82.55 129.355C90.5233 129.355 97.615 128.243 103.825 126.02C110.035 123.72 114.597 121.458 117.51 119.235L129.815 143.73C126.288 146.797 120.193 149.902 111.53 153.045C102.943 156.188 92.67 157.76 80.71 157.76C69.5167 157.76 59.0517 155.805 49.315 151.895C39.5783 147.908 31.03 142.388 23.67 135.335C16.31 128.205 10.56 119.887 6.42 110.38C2.28 100.797 0.21 90.4467 0.21 79.33C0.21 68.2133 2.24167 57.8633 6.305 48.28C10.445 38.62 16.195 30.225 23.555 23.095C30.915 15.965 39.4633 10.4067 49.2 6.41999C59.0133 2.43332 69.5167 0.439988 80.71 0.439988C92.67 0.439988 102.943 2.01166 111.53 5.15499C120.193 8.29832 126.288 11.4033 129.815 14.47L117.51 38.965C114.597 36.7417 110.035 34.5183 103.825 32.295C97.615 29.995 90.5233 28.845 82.55 28.845C74.4233 28.845 67.1783 30.1483 60.815 32.755C54.5283 35.3617 49.1617 39.0033 44.715 43.68C40.345 48.28 37.01 53.6083 34.71 59.665C32.41 65.7217 31.26 72.1617 31.26 78.985C31.26 85.885 32.41 92.4017 34.71 98.535C37.01 104.592 40.345 109.958 44.715 114.635C49.1617 119.235 54.5283 122.838 60.815 125.445C67.1783 128.052 74.4233 129.355 82.55 129.355ZM209.544 157.76C199.501 157.76 190.531 155.613 182.634 151.32C174.814 147.027 168.681 141.162 164.234 133.725C159.787 126.212 157.564 117.663 157.564 108.08C157.564 98.4967 159.787 89.9483 164.234 82.435C168.681 74.845 174.814 68.865 182.634 64.495C190.531 60.0483 199.501 57.825 209.544 57.825C219.664 57.825 228.596 60.0483 236.339 64.495C244.082 68.865 250.139 74.845 254.509 82.435C258.879 89.9483 261.064 98.4967 261.064 108.08C261.064 117.663 258.879 126.212 254.509 133.725C250.139 141.162 244.082 147.027 236.339 151.32C228.596 155.613 219.664 157.76 209.544 157.76ZM209.544 133.495C214.374 133.495 218.552 132.422 222.079 130.275C225.682 128.052 228.442 125.023 230.359 121.19C232.352 117.28 233.349 112.872 233.349 107.965C233.349 103.058 232.352 98.65 230.359 94.74C228.442 90.83 225.682 87.7633 222.079 85.54C218.552 83.24 214.374 82.09 209.544 82.09C204.714 82.09 200.497 83.24 196.894 85.54C193.367 87.7633 190.607 90.83 188.614 94.74C186.621 98.65 185.624 103.058 185.624 107.965C185.624 112.872 186.621 117.28 188.614 121.19C190.607 125.023 193.367 128.052 196.894 130.275C200.497 132.422 204.714 133.495 209.544 133.495ZM415.68 57.825C422.733 57.825 428.867 59.32 434.08 62.31C439.37 65.3 443.472 69.9 446.385 76.11C449.375 82.2433 450.87 90.14 450.87 99.8V155H422.12V104.515C422.12 96.5417 420.932 90.3317 418.555 85.885C416.255 81.4383 411.847 79.215 405.33 79.215C401.65 79.215 398.277 80.2117 395.21 82.205C392.143 84.1217 389.69 86.9583 387.85 90.715C386.087 94.4717 385.205 99.0717 385.205 104.515V155H358.295V104.515C358.295 96.5417 356.953 90.3317 354.27 85.885C351.587 81.4383 347.332 79.215 341.505 79.215C337.748 79.215 334.337 80.1733 331.27 82.09C328.28 84.0067 325.903 86.8433 324.14 90.6C322.453 94.28 321.61 98.9183 321.61 104.515V155H292.63V60.585H321.61V74.385C322.453 72.0083 324.37 69.555 327.36 67.025C330.427 64.495 334.222 62.3483 338.745 60.585C343.268 58.745 348.137 57.825 353.35 57.825C359.023 57.825 363.738 58.7833 367.495 60.7C371.252 62.6167 374.28 65.07 376.58 68.06C378.957 70.9733 380.758 74.04 381.985 77.26C383.058 74.27 385.167 71.28 388.31 68.29C391.453 65.3 395.402 62.8083 400.155 60.815C404.908 58.8217 410.083 57.825 415.68 57.825ZM514.359 202.84H485.379V60.585H514.704V75.88C515.624 73.6567 517.617 71.1267 520.684 68.29C523.75 65.4533 527.737 63 532.644 60.93C537.627 58.86 543.3 57.825 549.664 57.825C558.634 57.825 566.454 60.01 573.124 64.38C579.794 68.75 584.93 74.73 588.534 82.32C592.214 89.8333 594.054 98.3433 594.054 107.85C594.054 117.357 592.137 125.905 588.304 133.495C584.47 141.008 579.142 146.95 572.319 151.32C565.496 155.613 557.561 157.76 548.514 157.76C541.69 157.76 535.825 156.533 530.919 154.08C526.012 151.627 522.179 148.867 519.419 145.8C516.659 142.733 514.972 140.318 514.359 138.555V202.84ZM565.419 107.85C565.419 102.56 564.269 97.9217 561.969 93.935C559.745 89.8717 556.755 86.7283 552.999 84.505C549.242 82.205 545.064 81.055 540.464 81.055C535.634 81.055 531.264 82.205 527.354 84.505C523.444 86.805 520.339 89.9867 518.039 94.05C515.815 98.0367 514.704 102.637 514.704 107.85C514.704 113.063 515.815 117.702 518.039 121.765C520.339 125.752 523.444 128.895 527.354 131.195C531.264 133.418 535.634 134.53 540.464 134.53C545.064 134.53 549.242 133.418 552.999 131.195C556.755 128.972 559.745 125.867 561.969 121.88C564.269 117.817 565.419 113.14 565.419 107.85ZM698.747 155V138.555C698.057 140.242 696.294 142.618 693.457 145.685C690.62 148.752 686.787 151.55 681.957 154.08C677.204 156.533 671.607 157.76 665.167 157.76C656.12 157.76 648.109 155.613 641.132 151.32C634.155 146.95 628.674 141.008 624.687 133.495C620.777 125.905 618.822 117.357 618.822 107.85C618.822 98.3433 620.777 89.8333 624.687 82.32C628.674 74.73 634.155 68.75 641.132 64.38C648.109 60.01 656.12 57.825 665.167 57.825C671.454 57.825 676.897 58.8983 681.497 61.045C686.174 63.115 689.93 65.5683 692.767 68.405C695.68 71.165 697.559 73.6567 698.402 75.88V60.585H727.382V155H698.747ZM647.457 107.85C647.457 113.14 648.645 117.817 651.022 121.88C653.399 125.867 656.542 128.972 660.452 131.195C664.362 133.418 668.617 134.53 673.217 134.53C678.047 134.53 682.34 133.418 686.097 131.195C689.854 128.895 692.805 125.752 694.952 121.765C697.175 117.702 698.287 113.063 698.287 107.85C698.287 102.637 697.175 98.0367 694.952 94.05C692.805 89.9867 689.854 86.805 686.097 84.505C682.34 82.205 678.047 81.055 673.217 81.055C668.617 81.055 664.362 82.205 660.452 84.505C656.542 86.7283 653.399 89.8717 651.022 93.935C648.645 97.9217 647.457 102.56 647.457 107.85ZM790.116 155H760.906V60.585H790.116V75.88H789.541C790.078 74.04 791.535 71.7017 793.911 68.865C796.365 66.0283 799.738 63.4983 804.031 61.275C808.325 58.975 813.5 57.825 819.556 57.825C823.926 57.825 827.875 58.4767 831.401 59.78C835.005 61.0067 837.573 62.2333 839.106 63.46L827.606 87.38C826.61 86.1533 824.731 84.8883 821.971 83.585C819.288 82.2817 815.915 81.63 811.851 81.63C807.021 81.63 802.996 82.9717 799.776 85.655C796.556 88.2617 794.141 91.4817 792.531 95.315C790.921 99.0717 790.116 102.598 790.116 105.895V155ZM863.12 155V60.585H892.215V155H863.12ZM878.07 36.205C873.24 36.205 869.138 34.5183 865.765 31.145C862.468 27.7717 860.82 23.7467 860.82 19.07C860.82 14.3933 862.506 10.33 865.88 6.87999C869.253 3.42999 873.316 1.70499 878.07 1.70499C881.213 1.70499 884.088 2.50999 886.695 4.12C889.301 5.65333 891.41 7.72333 893.02 10.33C894.63 12.9367 895.435 15.85 895.435 19.07C895.435 23.7467 893.71 27.7717 890.26 31.145C886.886 34.5183 882.823 36.205 878.07 36.205ZM969.96 57.825C975.633 57.825 980.885 58.3617 985.715 59.435C990.545 60.4317 994.608 61.5817 997.905 62.885C1001.28 64.1883 1003.5 65.3 1004.58 66.22L994.57 83.815C993.037 82.5883 990.277 81.1317 986.29 79.445C982.38 77.7583 978.01 76.915 973.18 76.915C968.81 76.915 965.13 77.6817 962.14 79.215C959.15 80.6717 957.655 82.895 957.655 85.885C957.655 88.875 959.265 91.2517 962.485 93.015C965.705 94.7783 970.19 96.3117 975.94 97.615C980.77 98.6117 985.523 100.145 990.2 102.215C994.877 104.208 998.748 107.122 1001.82 110.955C1004.88 114.712 1006.42 119.733 1006.42 126.02C1006.42 132.23 1005.07 137.405 1002.39 141.545C999.783 145.608 996.295 148.828 991.925 151.205C987.555 153.582 982.763 155.268 977.55 156.265C972.337 157.262 967.162 157.76 962.025 157.76C955.355 157.76 949.49 157.108 944.43 155.805C939.37 154.578 935.192 153.16 931.895 151.55C928.675 149.863 926.375 148.445 924.995 147.295L935 127.745C936.993 129.508 940.252 131.463 944.775 133.61C949.375 135.68 954.32 136.715 959.61 136.715C965.13 136.715 969.462 135.757 972.605 133.84C975.825 131.923 977.435 129.355 977.435 126.135C977.435 123.758 976.668 121.842 975.135 120.385C973.602 118.852 971.493 117.587 968.81 116.59C966.127 115.593 962.983 114.712 959.38 113.945C956.083 113.255 952.71 112.258 949.26 110.955C945.81 109.575 942.59 107.773 939.6 105.55C936.61 103.327 934.195 100.567 932.355 97.27C930.515 93.8967 929.595 89.8717 929.595 85.195C929.595 79.215 931.512 74.2317 935.345 70.245C939.178 66.1817 944.162 63.115 950.295 61.045C956.428 58.8983 962.983 57.825 969.96 57.825ZM1084.71 157.76C1074.67 157.76 1065.7 155.613 1057.8 151.32C1049.98 147.027 1043.85 141.162 1039.4 133.725C1034.96 126.212 1032.73 117.663 1032.73 108.08C1032.73 98.4967 1034.96 89.9483 1039.4 82.435C1043.85 74.845 1049.98 68.865 1057.8 64.495C1065.7 60.0483 1074.67 57.825 1084.71 57.825C1094.83 57.825 1103.76 60.0483 1111.51 64.495C1119.25 68.865 1125.31 74.845 1129.68 82.435C1134.05 89.9483 1136.23 98.4967 1136.23 108.08C1136.23 117.663 1134.05 126.212 1129.68 133.725C1125.31 141.162 1119.25 147.027 1111.51 151.32C1103.76 155.613 1094.83 157.76 1084.71 157.76ZM1084.71 133.495C1089.54 133.495 1093.72 132.422 1097.25 130.275C1100.85 128.052 1103.61 125.023 1105.53 121.19C1107.52 117.28 1108.52 112.872 1108.52 107.965C1108.52 103.058 1107.52 98.65 1105.53 94.74C1103.61 90.83 1100.85 87.7633 1097.25 85.54C1093.72 83.24 1089.54 82.09 1084.71 82.09C1079.88 82.09 1075.67 83.24 1072.06 85.54C1068.54 87.7633 1065.78 90.83 1063.78 94.74C1061.79 98.65 1060.79 103.058 1060.79 107.965C1060.79 112.872 1061.79 117.28 1063.78 121.19C1065.78 125.023 1068.54 128.052 1072.06 130.275C1075.67 132.422 1079.88 133.495 1084.71 133.495ZM1227.6 57.825C1234.04 57.825 1240.32 59.1667 1246.46 61.85C1252.59 64.4567 1257.61 68.635 1261.52 74.385C1265.51 80.135 1267.5 87.6483 1267.5 96.925V155H1238.18V101.985C1238.18 94.2417 1236.34 88.4917 1232.66 84.735C1229.05 80.9783 1224.3 79.1 1218.4 79.1C1214.56 79.1 1210.88 80.1733 1207.36 82.32C1203.91 84.39 1201.07 87.3033 1198.85 91.06C1196.7 94.74 1195.63 98.9567 1195.63 103.71V155H1166.42V60.585H1195.63V75.65C1196.47 73.0433 1198.39 70.36 1201.38 67.6C1204.37 64.84 1208.16 62.54 1212.76 60.7C1217.36 58.7833 1222.31 57.825 1227.6 57.825Z" fill="#92FF25" fill-opacity="0.5"/>
</svg>
