<svg width="831" height="158" viewBox="0 0 831 158" fill="none" xmlns="http://www.w3.org/2000/svg">
<path d="M82.55 129.355C90.5233 129.355 97.615 128.243 103.825 126.02C110.035 123.72 114.597 121.458 117.51 119.235L129.815 143.73C126.288 146.797 120.193 149.902 111.53 153.045C102.943 156.188 92.67 157.76 80.71 157.76C69.5167 157.76 59.0517 155.805 49.315 151.895C39.5783 147.908 31.03 142.388 23.67 135.335C16.31 128.205 10.56 119.887 6.42 110.38C2.28 100.797 0.21 90.4467 0.21 79.33C0.21 68.2133 2.24167 57.8633 6.305 48.28C10.445 38.62 16.195 30.225 23.555 23.095C30.915 15.965 39.4633 10.4067 49.2 6.41999C59.0133 2.43332 69.5167 0.439988 80.71 0.439988C92.67 0.439988 102.943 2.01166 111.53 5.15499C120.193 8.29832 126.288 11.4033 129.815 14.47L117.51 38.965C114.597 36.7417 110.035 34.5183 103.825 32.295C97.615 29.995 90.5233 28.845 82.55 28.845C74.4233 28.845 67.1783 30.1483 60.815 32.755C54.5283 35.3617 49.1617 39.0033 44.715 43.68C40.345 48.28 37.01 53.6083 34.71 59.665C32.41 65.7217 31.26 72.1617 31.26 78.985C31.26 85.885 32.41 92.4017 34.71 98.535C37.01 104.592 40.345 109.958 44.715 114.635C49.1617 119.235 54.5283 122.838 60.815 125.445C67.1783 128.052 74.4233 129.355 82.55 129.355ZM209.544 157.76C199.501 157.76 190.531 155.613 182.634 151.32C174.814 147.027 168.681 141.162 164.234 133.725C159.787 126.212 157.564 117.663 157.564 108.08C157.564 98.4967 159.787 89.9483 164.234 82.435C168.681 74.845 174.814 68.865 182.634 64.495C190.531 60.0483 199.501 57.825 209.544 57.825C219.664 57.825 228.596 60.0483 236.339 64.495C244.082 68.865 250.139 74.845 254.509 82.435C258.879 89.9483 261.064 98.4967 261.064 108.08C261.064 117.663 258.879 126.212 254.509 133.725C250.139 141.162 244.082 147.027 236.339 151.32C228.596 155.613 219.664 157.76 209.544 157.76ZM209.544 133.495C214.374 133.495 218.552 132.422 222.079 130.275C225.682 128.052 228.442 125.023 230.359 121.19C232.352 117.28 233.349 112.872 233.349 107.965C233.349 103.058 232.352 98.65 230.359 94.74C228.442 90.83 225.682 87.7633 222.079 85.54C218.552 83.24 214.374 82.09 209.544 82.09C204.714 82.09 200.497 83.24 196.894 85.54C193.367 87.7633 190.607 90.83 188.614 94.74C186.621 98.65 185.624 103.058 185.624 107.965C185.624 112.872 186.621 117.28 188.614 121.19C190.607 125.023 193.367 128.052 196.894 130.275C200.497 132.422 204.714 133.495 209.544 133.495ZM352.43 57.825C358.87 57.825 365.157 59.1667 371.29 61.85C377.423 64.4567 382.445 68.635 386.355 74.385C390.342 80.135 392.335 87.6483 392.335 96.925V155H363.01V101.985C363.01 94.2417 361.17 88.4917 357.49 84.735C353.887 80.9783 349.133 79.1 343.23 79.1C339.397 79.1 335.717 80.1733 332.19 82.32C328.74 84.39 325.903 87.3033 323.68 91.06C321.533 94.74 320.46 98.9567 320.46 103.71V155H291.25V60.585H320.46V75.65C321.303 73.0433 323.22 70.36 326.21 67.6C329.2 64.84 332.995 62.54 337.595 60.7C342.195 58.7833 347.14 57.825 352.43 57.825ZM418.481 60.585H435.501V21.83H464.481V60.585H486.791V84.85H464.481V119.005C464.481 123.528 465.21 127.055 466.666 129.585C468.123 132.038 470.423 133.265 473.566 133.265C475.943 133.265 477.898 132.805 479.431 131.885C480.965 130.888 481.885 130.198 482.191 129.815L492.541 150.745C492.081 151.205 490.586 152.01 488.056 153.16C485.603 154.31 482.421 155.345 478.511 156.265C474.678 157.262 470.346 157.76 465.516 157.76C456.853 157.76 449.685 155.268 444.011 150.285C438.338 145.225 435.501 137.405 435.501 126.825V84.85H418.481V60.585ZM592.956 155V138.555C592.266 140.242 590.503 142.618 587.666 145.685C584.829 148.752 580.996 151.55 576.166 154.08C571.413 156.533 565.816 157.76 559.376 157.76C550.329 157.76 542.318 155.613 535.341 151.32C528.364 146.95 522.883 141.008 518.896 133.495C514.986 125.905 513.031 117.357 513.031 107.85C513.031 98.3433 514.986 89.8333 518.896 82.32C522.883 74.73 528.364 68.75 535.341 64.38C542.318 60.01 550.329 57.825 559.376 57.825C565.663 57.825 571.106 58.8983 575.706 61.045C580.383 63.115 584.139 65.5683 586.976 68.405C589.889 71.165 591.768 73.6567 592.611 75.88V60.585H621.591V155H592.956ZM541.666 107.85C541.666 113.14 542.854 117.817 545.231 121.88C547.608 125.867 550.751 128.972 554.661 131.195C558.571 133.418 562.826 134.53 567.426 134.53C572.256 134.53 576.549 133.418 580.306 131.195C584.063 128.895 587.014 125.752 589.161 121.765C591.384 117.702 592.496 113.063 592.496 107.85C592.496 102.637 591.384 98.0367 589.161 94.05C587.014 89.9867 584.063 86.805 580.306 84.505C576.549 82.205 572.256 81.055 567.426 81.055C562.826 81.055 558.571 82.205 554.661 84.505C550.751 86.7283 547.608 89.8717 545.231 93.935C542.854 97.9217 541.666 102.56 541.666 107.85ZM705.715 134.53C710.699 134.53 714.762 133.687 717.905 132C721.049 130.313 723.119 129.048 724.115 128.205L737.685 148.33C736.612 149.173 734.619 150.362 731.705 151.895C728.792 153.428 725.074 154.77 720.55 155.92C716.104 157.147 711.005 157.76 705.255 157.76C695.289 157.76 686.357 155.767 678.46 151.78C670.564 147.717 664.315 141.967 659.715 134.53C655.192 127.017 652.93 118.085 652.93 107.735C652.93 97.3083 655.192 88.3767 659.715 80.94C664.315 73.5033 670.564 67.7917 678.46 63.805C686.357 59.8183 695.289 57.825 705.255 57.825C710.929 57.825 715.95 58.4383 720.32 59.665C724.767 60.8917 728.485 62.31 731.475 63.92C734.465 65.4533 736.535 66.7183 737.685 67.715L723.77 87.955C723.234 87.3417 722.199 86.4983 720.665 85.425C719.132 84.3517 717.1 83.355 714.57 82.435C712.117 81.515 709.165 81.055 705.715 81.055C701.499 81.055 697.474 82.1667 693.64 84.39C689.884 86.6133 686.817 89.7183 684.44 93.705C682.064 97.6917 680.875 102.368 680.875 107.735C680.875 113.102 682.064 117.817 684.44 121.88C686.817 125.867 689.884 128.972 693.64 131.195C697.474 133.418 701.499 134.53 705.715 134.53ZM756.653 60.585H773.673V21.83H802.653V60.585H824.963V84.85H802.653V119.005C802.653 123.528 803.381 127.055 804.838 129.585C806.295 132.038 808.595 133.265 811.738 133.265C814.115 133.265 816.07 132.805 817.603 131.885C819.136 130.888 820.056 130.198 820.363 129.815L830.713 150.745C830.253 151.205 828.758 152.01 826.228 153.16C823.775 154.31 820.593 155.345 816.683 156.265C812.85 157.262 808.518 157.76 803.688 157.76C795.025 157.76 787.856 155.268 782.183 150.285C776.51 145.225 773.673 137.405 773.673 126.825V84.85H756.653V60.585Z" fill="#92FF25" fill-opacity="0.15"/>
</svg>
