<svg width="899" height="155" viewBox="0 0 899 155" fill="none" xmlns="http://www.w3.org/2000/svg">
<path d="M0.270001 0.199994H84.68V25.615H29.02V63.22H80.655V88.52H29.02V152H0.270001V0.199994ZM135.237 111.29C135.467 115.583 136.617 119.417 138.687 122.79C140.757 126.163 143.747 128.808 147.657 130.725C151.644 132.642 156.397 133.6 161.917 133.6C166.9 133.6 171.27 132.987 175.027 131.76C178.86 130.533 182.08 129.038 184.687 127.275C187.37 125.435 189.364 123.672 190.667 121.985L202.742 139.925C200.595 142.608 197.72 145.1 194.117 147.4C190.59 149.623 186.067 151.387 180.547 152.69C175.104 154.07 168.28 154.76 160.077 154.76C149.727 154.76 140.642 152.728 132.822 148.665C125.002 144.602 118.907 138.737 114.537 131.07C110.167 123.403 107.982 114.28 107.982 103.7C107.982 94.5 109.937 86.22 113.847 78.86C117.757 71.4233 123.43 65.5583 130.867 61.265C138.38 56.9717 147.389 54.825 157.892 54.825C167.782 54.825 176.33 56.7417 183.537 60.575C190.82 64.3317 196.455 69.8517 200.442 77.135C204.429 84.4183 206.422 93.3117 206.422 103.815C206.422 104.428 206.384 105.693 206.307 107.61C206.307 109.45 206.23 110.677 206.077 111.29H135.237ZM179.052 93.235C178.975 90.7817 178.209 88.1367 176.752 85.3C175.372 82.4633 173.187 80.0483 170.197 78.055C167.207 76.0617 163.22 75.065 158.237 75.065C153.254 75.065 149.152 76.0233 145.932 77.94C142.789 79.8567 140.412 82.2333 138.802 85.07C137.192 87.83 136.272 90.5517 136.042 93.235H179.052ZM311.821 152V135.555C311.131 137.242 309.368 139.618 306.531 142.685C303.695 145.752 299.861 148.55 295.031 151.08C290.278 153.533 284.681 154.76 278.241 154.76C269.195 154.76 261.183 152.613 254.206 148.32C247.23 143.95 241.748 138.008 237.761 130.495C233.851 122.905 231.896 114.357 231.896 104.85C231.896 95.3433 233.851 86.8333 237.761 79.32C241.748 71.73 247.23 65.75 254.206 61.38C261.183 57.01 269.195 54.825 278.241 54.825C284.528 54.825 289.971 55.8983 294.571 58.045C299.248 60.115 303.005 62.5683 305.841 65.405C308.755 68.165 310.633 70.6567 311.476 72.88V57.585H340.456V152H311.821ZM260.531 104.85C260.531 110.14 261.72 114.817 264.096 118.88C266.473 122.867 269.616 125.972 273.526 128.195C277.436 130.418 281.691 131.53 286.291 131.53C291.121 131.53 295.415 130.418 299.171 128.195C302.928 125.895 305.88 122.752 308.026 118.765C310.25 114.702 311.361 110.063 311.361 104.85C311.361 99.6367 310.25 95.0367 308.026 91.05C305.88 86.9867 302.928 83.805 299.171 81.505C295.415 79.205 291.121 78.055 286.291 78.055C281.691 78.055 277.436 79.205 273.526 81.505C269.616 83.7283 266.473 86.8717 264.096 90.935C261.72 94.9217 260.531 99.56 260.531 104.85ZM367.885 57.585H384.905V18.83H413.885V57.585H436.195V81.85H413.885V116.005C413.885 120.528 414.614 124.055 416.07 126.585C417.527 129.038 419.827 130.265 422.97 130.265C425.347 130.265 427.302 129.805 428.835 128.885C430.369 127.888 431.289 127.198 431.595 126.815L441.945 147.745C441.485 148.205 439.99 149.01 437.46 150.16C435.007 151.31 431.825 152.345 427.915 153.265C424.082 154.262 419.75 154.76 414.92 154.76C406.257 154.76 399.089 152.268 393.415 147.285C387.742 142.225 384.905 134.405 384.905 123.825V81.85H367.885V57.585ZM495.67 102.78C495.67 111.213 497.357 117.96 500.73 123.02C504.104 128.003 509.547 130.495 517.06 130.495C524.65 130.495 530.132 128.003 533.505 123.02C536.879 117.96 538.565 111.213 538.565 102.78V57.585H567.315V106.115C567.315 115.852 565.36 124.4 561.45 131.76C557.54 139.043 551.829 144.717 544.315 148.78C536.879 152.767 527.794 154.76 517.06 154.76C506.404 154.76 497.319 152.767 489.805 148.78C482.369 144.717 476.695 139.043 472.785 131.76C468.875 124.4 466.92 115.852 466.92 106.115V57.585H495.67V102.78ZM629.687 152H600.477V57.585H629.687V72.88H629.112C629.648 71.04 631.105 68.7017 633.482 65.865C635.935 63.0283 639.308 60.4983 643.602 58.275C647.895 55.975 653.07 54.825 659.127 54.825C663.497 54.825 667.445 55.4767 670.972 56.78C674.575 58.0067 677.143 59.2333 678.677 60.46L667.177 84.38C666.18 83.1533 664.302 81.8883 661.542 80.585C658.858 79.2817 655.485 78.63 651.422 78.63C646.592 78.63 642.567 79.9717 639.347 82.655C636.127 85.2617 633.712 88.4817 632.102 92.315C630.492 96.0717 629.687 99.5983 629.687 102.895V152ZM720.569 111.29C720.799 115.583 721.949 119.417 724.019 122.79C726.089 126.163 729.079 128.808 732.989 130.725C736.976 132.642 741.729 133.6 747.249 133.6C752.232 133.6 756.602 132.987 760.359 131.76C764.192 130.533 767.412 129.038 770.019 127.275C772.702 125.435 774.696 123.672 775.999 121.985L788.074 139.925C785.927 142.608 783.052 145.1 779.449 147.4C775.922 149.623 771.399 151.387 765.879 152.69C760.436 154.07 753.612 154.76 745.409 154.76C735.059 154.76 725.974 152.728 718.154 148.665C710.334 144.602 704.239 138.737 699.869 131.07C695.499 123.403 693.314 114.28 693.314 103.7C693.314 94.5 695.269 86.22 699.179 78.86C703.089 71.4233 708.762 65.5583 716.199 61.265C723.712 56.9717 732.721 54.825 743.224 54.825C753.114 54.825 761.662 56.7417 768.869 60.575C776.152 64.3317 781.787 69.8517 785.774 77.135C789.761 84.4183 791.754 93.3117 791.754 103.815C791.754 104.428 791.716 105.693 791.639 107.61C791.639 109.45 791.562 110.677 791.409 111.29H720.569ZM764.384 93.235C764.307 90.7817 763.541 88.1367 762.084 85.3C760.704 82.4633 758.519 80.0483 755.529 78.055C752.539 76.0617 748.552 75.065 743.569 75.065C738.586 75.065 734.484 76.0233 731.264 77.94C728.121 79.8567 725.744 82.2333 724.134 85.07C722.524 87.83 721.604 90.5517 721.374 93.235H764.384ZM862.538 54.825C868.212 54.825 873.463 55.3617 878.293 56.435C883.123 57.4317 887.187 58.5817 890.483 59.885C893.857 61.1883 896.08 62.3 897.153 63.22L887.148 80.815C885.615 79.5883 882.855 78.1317 878.868 76.445C874.958 74.7583 870.588 73.915 865.758 73.915C861.388 73.915 857.708 74.6817 854.718 76.215C851.728 77.6717 850.233 79.895 850.233 82.885C850.233 85.875 851.843 88.2517 855.063 90.015C858.283 91.7783 862.768 93.3117 868.518 94.615C873.348 95.6117 878.102 97.145 882.778 99.215C887.455 101.208 891.327 104.122 894.393 107.955C897.46 111.712 898.993 116.733 898.993 123.02C898.993 129.23 897.652 134.405 894.968 138.545C892.362 142.608 888.873 145.828 884.503 148.205C880.133 150.582 875.342 152.268 870.128 153.265C864.915 154.262 859.74 154.76 854.603 154.76C847.933 154.76 842.068 154.108 837.008 152.805C831.948 151.578 827.77 150.16 824.473 148.55C821.253 146.863 818.953 145.445 817.573 144.295L827.578 124.745C829.572 126.508 832.83 128.463 837.353 130.61C841.953 132.68 846.898 133.715 852.188 133.715C857.708 133.715 862.04 132.757 865.183 130.84C868.403 128.923 870.013 126.355 870.013 123.135C870.013 120.758 869.247 118.842 867.713 117.385C866.18 115.852 864.072 114.587 861.388 113.59C858.705 112.593 855.562 111.712 851.958 110.945C848.662 110.255 845.288 109.258 841.838 107.955C838.388 106.575 835.168 104.773 832.178 102.55C829.188 100.327 826.773 97.5667 824.933 94.27C823.093 90.8967 822.173 86.8717 822.173 82.195C822.173 76.215 824.09 71.2317 827.923 67.245C831.757 63.1817 836.74 60.115 842.873 58.045C849.007 55.8983 855.562 54.825 862.538 54.825Z" fill="#92FF25" fill-opacity="0.5"/>
</svg>
