<svg width="745" height="155" viewBox="0 0 745 155" fill="none" xmlns="http://www.w3.org/2000/svg">
<path d="M0.35 0.199994H58.77C67.3567 0.199994 75.0617 2.00166 81.885 5.605C88.7083 9.13166 94.1133 14.3067 98.1 21.13C102.163 27.8767 104.195 36.0417 104.195 45.625C104.195 55.1317 102.432 62.9517 98.905 69.085C95.3783 75.1417 91.1233 79.7033 86.14 82.77C81.2333 85.8367 76.6717 87.6 72.455 88.06L109.715 152H77.285L43.59 90.245H28.985V152H0.35V0.199994ZM28.985 70.005H48.535C55.8183 70.005 61.99 68.2033 67.05 64.6C72.1867 60.9967 74.755 54.94 74.755 46.43C74.755 37.92 72.225 31.94 67.165 28.49C62.105 24.9633 55.9717 23.2 48.765 23.2H28.985V70.005ZM166.559 111.29C166.789 115.583 167.939 119.417 170.009 122.79C172.079 126.163 175.069 128.808 178.979 130.725C182.966 132.642 187.719 133.6 193.239 133.6C198.222 133.6 202.592 132.987 206.349 131.76C210.182 130.533 213.402 129.038 216.009 127.275C218.692 125.435 220.686 123.672 221.989 121.985L234.064 139.925C231.917 142.608 229.042 145.1 225.439 147.4C221.912 149.623 217.389 151.387 211.869 152.69C206.426 154.07 199.602 154.76 191.399 154.76C181.049 154.76 171.964 152.728 164.144 148.665C156.324 144.602 150.229 138.737 145.859 131.07C141.489 123.403 139.304 114.28 139.304 103.7C139.304 94.5 141.259 86.22 145.169 78.86C149.079 71.4233 154.752 65.5583 162.189 61.265C169.702 56.9717 178.711 54.825 189.214 54.825C199.104 54.825 207.652 56.7417 214.859 60.575C222.142 64.3317 227.777 69.8517 231.764 77.135C235.751 84.4183 237.744 93.3117 237.744 103.815C237.744 104.428 237.706 105.693 237.629 107.61C237.629 109.45 237.552 110.677 237.399 111.29H166.559ZM210.374 93.235C210.297 90.7817 209.531 88.1367 208.074 85.3C206.694 82.4633 204.509 80.0483 201.519 78.055C198.529 76.0617 194.542 75.065 189.559 75.065C184.576 75.065 180.474 76.0233 177.254 77.94C174.111 79.8567 171.734 82.2333 170.124 85.07C168.514 87.83 167.594 90.5517 167.364 93.235H210.374ZM343.143 152V135.555C342.453 137.242 340.69 139.618 337.853 142.685C335.017 145.752 331.183 148.55 326.353 151.08C321.6 153.533 316.003 154.76 309.563 154.76C300.517 154.76 292.505 152.613 285.528 148.32C278.552 143.95 273.07 138.008 269.083 130.495C265.173 122.905 263.218 114.357 263.218 104.85C263.218 95.3433 265.173 86.8333 269.083 79.32C273.07 71.73 278.552 65.75 285.528 61.38C292.505 57.01 300.517 54.825 309.563 54.825C315.85 54.825 321.293 55.8983 325.893 58.045C330.57 60.115 334.327 62.5683 337.163 65.405C340.077 68.165 341.955 70.6567 342.798 72.88V57.585H371.778V152H343.143ZM291.853 104.85C291.853 110.14 293.042 114.817 295.418 118.88C297.795 122.867 300.938 125.972 304.848 128.195C308.758 130.418 313.013 131.53 317.613 131.53C322.443 131.53 326.737 130.418 330.493 128.195C334.25 125.895 337.202 122.752 339.348 118.765C341.572 114.702 342.683 110.063 342.683 104.85C342.683 99.6367 341.572 95.0367 339.348 91.05C337.202 86.9867 334.25 83.805 330.493 81.505C326.737 79.205 322.443 78.055 317.613 78.055C313.013 78.055 308.758 79.205 304.848 81.505C300.938 83.7283 297.795 86.8717 295.418 90.935C293.042 94.9217 291.853 99.56 291.853 104.85ZM446.933 54.825C452.606 54.825 457.858 55.3617 462.688 56.435C467.518 57.4317 471.581 58.5817 474.878 59.885C478.251 61.1883 480.474 62.3 481.548 63.22L471.543 80.815C470.009 79.5883 467.249 78.1317 463.263 76.445C459.353 74.7583 454.983 73.915 450.153 73.915C445.783 73.915 442.103 74.6817 439.113 76.215C436.123 77.6717 434.628 79.895 434.628 82.885C434.628 85.875 436.238 88.2517 439.458 90.015C442.678 91.7783 447.163 93.3117 452.913 94.615C457.743 95.6117 462.496 97.145 467.173 99.215C471.849 101.208 475.721 104.122 478.788 107.955C481.854 111.712 483.388 116.733 483.388 123.02C483.388 129.23 482.046 134.405 479.363 138.545C476.756 142.608 473.268 145.828 468.898 148.205C464.528 150.582 459.736 152.268 454.523 153.265C449.309 154.262 444.134 154.76 438.998 154.76C432.328 154.76 426.463 154.108 421.403 152.805C416.343 151.578 412.164 150.16 408.868 148.55C405.648 146.863 403.348 145.445 401.968 144.295L411.973 124.745C413.966 126.508 417.224 128.463 421.748 130.61C426.348 132.68 431.293 133.715 436.583 133.715C442.103 133.715 446.434 132.757 449.578 130.84C452.798 128.923 454.408 126.355 454.408 123.135C454.408 120.758 453.641 118.842 452.108 117.385C450.574 115.852 448.466 114.587 445.783 113.59C443.099 112.593 439.956 111.712 436.353 110.945C433.056 110.255 429.683 109.258 426.233 107.955C422.783 106.575 419.563 104.773 416.573 102.55C413.583 100.327 411.168 97.5667 409.328 94.27C407.488 90.8967 406.568 86.8717 406.568 82.195C406.568 76.215 408.484 71.2317 412.318 67.245C416.151 63.1817 421.134 60.115 427.268 58.045C433.401 55.8983 439.956 54.825 446.933 54.825ZM561.685 154.76C551.641 154.76 542.671 152.613 534.775 148.32C526.955 144.027 520.821 138.162 516.375 130.725C511.928 123.212 509.705 114.663 509.705 105.08C509.705 95.4967 511.928 86.9483 516.375 79.435C520.821 71.845 526.955 65.865 534.775 61.495C542.671 57.0483 551.641 54.825 561.685 54.825C571.805 54.825 580.736 57.0483 588.48 61.495C596.223 65.865 602.28 71.845 606.65 79.435C611.02 86.9483 613.205 95.4967 613.205 105.08C613.205 114.663 611.02 123.212 606.65 130.725C602.28 138.162 596.223 144.027 588.48 148.32C580.736 152.613 571.805 154.76 561.685 154.76ZM561.685 130.495C566.515 130.495 570.693 129.422 574.22 127.275C577.823 125.052 580.583 122.023 582.5 118.19C584.493 114.28 585.49 109.872 585.49 104.965C585.49 100.058 584.493 95.65 582.5 91.74C580.583 87.83 577.823 84.7633 574.22 82.54C570.693 80.24 566.515 79.09 561.685 79.09C556.855 79.09 552.638 80.24 549.035 82.54C545.508 84.7633 542.748 87.83 540.755 91.74C538.761 95.65 537.765 100.058 537.765 104.965C537.765 109.872 538.761 114.28 540.755 118.19C542.748 122.023 545.508 125.052 549.035 127.275C552.638 129.422 556.855 130.495 561.685 130.495ZM704.57 54.825C711.01 54.825 717.297 56.1667 723.43 58.85C729.564 61.4567 734.585 65.635 738.495 71.385C742.482 77.135 744.475 84.6483 744.475 93.925V152H715.15V98.985C715.15 91.2417 713.31 85.4917 709.63 81.735C706.027 77.9783 701.274 76.1 695.37 76.1C691.537 76.1 687.857 77.1733 684.33 79.32C680.88 81.39 678.044 84.3033 675.82 88.06C673.674 91.74 672.6 95.9567 672.6 100.71V152H643.39V57.585H672.6V72.65C673.444 70.0433 675.36 67.36 678.35 64.6C681.34 61.84 685.135 59.54 689.735 57.7C694.335 55.7833 699.28 54.825 704.57 54.825Z" fill="#92FF25" fill-opacity="0.15"/>
</svg>
