<svg width="872" height="203" viewBox="0 0 872 203" fill="none" xmlns="http://www.w3.org/2000/svg">
<path d="M59.02 0.439988C68.1433 0.439988 76.0783 1.47499 82.825 3.545C89.6483 5.53833 95.0533 7.685 99.04 9.985C103.103 12.285 105.557 13.78 106.4 14.47L92.37 37.815C91.1433 36.8183 89.035 35.4383 86.045 33.675C83.1317 31.835 79.605 30.225 75.465 28.845C71.325 27.3883 66.84 26.66 62.01 26.66C55.0333 26.66 49.4367 28.0017 45.22 30.685C41.08 33.2917 39.01 37.0867 39.01 42.07C39.01 45.4433 40.1217 48.4717 42.345 51.155C44.5683 53.7617 47.8267 56.215 52.12 58.515C56.49 60.815 61.8183 63.23 68.105 65.76C73.625 67.9067 78.8767 70.3983 83.86 73.235C88.92 76.0717 93.405 79.4067 97.315 83.24C101.302 87.0733 104.445 91.52 106.745 96.58C109.122 101.64 110.31 107.428 110.31 113.945C110.31 121.228 108.815 127.592 105.825 133.035C102.912 138.478 98.8483 143.04 93.635 146.72C88.4983 150.4 82.595 153.16 75.925 155C69.255 156.84 62.24 157.76 54.88 157.76C44.9133 157.76 35.9433 156.61 27.97 154.31C20.0733 151.933 13.6717 149.403 8.765 146.72C3.85833 144.037 0.983334 142.312 0.14 141.545L14.86 117.28C15.78 117.97 17.505 119.082 20.035 120.615C22.6417 122.148 25.785 123.72 29.465 125.33C33.2217 126.94 37.285 128.32 41.655 129.47C46.1017 130.62 50.625 131.195 55.225 131.195C63.505 131.195 69.7533 129.47 73.97 126.02C78.1867 122.57 80.295 118.085 80.295 112.565C80.295 108.425 78.9533 104.783 76.27 101.64C73.5867 98.4967 69.7917 95.6217 64.885 93.015C60.055 90.3317 54.2667 87.61 47.52 84.85C40.7733 82.0133 34.4867 78.7167 28.66 74.96C22.91 71.1267 18.2717 66.45 14.745 60.93C11.2183 55.3333 9.455 48.4717 9.455 40.345C9.455 32.295 11.7167 25.28 16.24 19.3C20.84 13.32 26.8967 8.68166 34.41 5.38499C42 2.08832 50.2033 0.439988 59.02 0.439988ZM165.821 114.29C166.051 118.583 167.201 122.417 169.271 125.79C171.341 129.163 174.331 131.808 178.241 133.725C182.228 135.642 186.981 136.6 192.501 136.6C197.484 136.6 201.854 135.987 205.611 134.76C209.444 133.533 212.664 132.038 215.271 130.275C217.954 128.435 219.948 126.672 221.251 124.985L233.326 142.925C231.179 145.608 228.304 148.1 224.701 150.4C221.174 152.623 216.651 154.387 211.131 155.69C205.688 157.07 198.864 157.76 190.661 157.76C180.311 157.76 171.226 155.728 163.406 151.665C155.586 147.602 149.491 141.737 145.121 134.07C140.751 126.403 138.566 117.28 138.566 106.7C138.566 97.5 140.521 89.22 144.431 81.86C148.341 74.4233 154.014 68.5583 161.451 64.265C168.964 59.9717 177.973 57.825 188.476 57.825C198.366 57.825 206.914 59.7417 214.121 63.575C221.404 67.3317 227.039 72.8517 231.026 80.135C235.013 87.4183 237.006 96.3117 237.006 106.815C237.006 107.428 236.968 108.693 236.891 110.61C236.891 112.45 236.814 113.677 236.661 114.29H165.821ZM209.636 96.235C209.559 93.7817 208.793 91.1367 207.336 88.3C205.956 85.4633 203.771 83.0483 200.781 81.055C197.791 79.0617 193.804 78.065 188.821 78.065C183.838 78.065 179.736 79.0233 176.516 80.94C173.373 82.8567 170.996 85.2333 169.386 88.07C167.776 90.83 166.856 93.5517 166.626 96.235H209.636ZM316.76 134.53C321.743 134.53 325.807 133.687 328.95 132C332.093 130.313 334.163 129.048 335.16 128.205L348.73 148.33C347.657 149.173 345.663 150.362 342.75 151.895C339.837 153.428 336.118 154.77 331.595 155.92C327.148 157.147 322.05 157.76 316.3 157.76C306.333 157.76 297.402 155.767 289.505 151.78C281.608 147.717 275.36 141.967 270.76 134.53C266.237 127.017 263.975 118.085 263.975 107.735C263.975 97.3083 266.237 88.3767 270.76 80.94C275.36 73.5033 281.608 67.7917 289.505 63.805C297.402 59.8183 306.333 57.825 316.3 57.825C321.973 57.825 326.995 58.4383 331.365 59.665C335.812 60.8917 339.53 62.31 342.52 63.92C345.51 65.4533 347.58 66.7183 348.73 67.715L334.815 87.955C334.278 87.3417 333.243 86.4983 331.71 85.425C330.177 84.3517 328.145 83.355 325.615 82.435C323.162 81.515 320.21 81.055 316.76 81.055C312.543 81.055 308.518 82.1667 304.685 84.39C300.928 86.6133 297.862 89.7183 295.485 93.705C293.108 97.6917 291.92 102.368 291.92 107.735C291.92 113.102 293.108 117.817 295.485 121.88C297.862 125.867 300.928 128.972 304.685 131.195C308.518 133.418 312.543 134.53 316.76 134.53ZM404.246 105.78C404.246 114.213 405.933 120.96 409.306 126.02C412.68 131.003 418.123 133.495 425.636 133.495C433.226 133.495 438.708 131.003 442.081 126.02C445.455 120.96 447.141 114.213 447.141 105.78V60.585H475.891V109.115C475.891 118.852 473.936 127.4 470.026 134.76C466.116 142.043 460.405 147.717 452.891 151.78C445.455 155.767 436.37 157.76 425.636 157.76C414.98 157.76 405.895 155.767 398.381 151.78C390.945 147.717 385.271 142.043 381.361 134.76C377.451 127.4 375.496 118.852 375.496 109.115V60.585H404.246V105.78ZM538.263 155H509.053V60.585H538.263V75.88H537.688C538.224 74.04 539.681 71.7017 542.058 68.865C544.511 66.0283 547.884 63.4983 552.178 61.275C556.471 58.975 561.646 57.825 567.703 57.825C572.073 57.825 576.021 58.4767 579.548 59.78C583.151 61.0067 585.719 62.2333 587.253 63.46L575.753 87.38C574.756 86.1533 572.878 84.8883 570.118 83.585C567.434 82.2817 564.061 81.63 559.998 81.63C555.168 81.63 551.143 82.9717 547.923 85.655C544.703 88.2617 542.288 91.4817 540.678 95.315C539.068 99.0717 538.263 102.598 538.263 105.895V155ZM611.266 155V60.585H640.361V155H611.266ZM626.216 36.205C621.386 36.205 617.285 34.5183 613.911 31.145C610.615 27.7717 608.966 23.7467 608.966 19.07C608.966 14.3933 610.653 10.33 614.026 6.87999C617.4 3.42999 621.463 1.70499 626.216 1.70499C629.36 1.70499 632.235 2.50999 634.841 4.12C637.448 5.65333 639.556 7.72333 641.166 10.33C642.776 12.9367 643.581 15.85 643.581 19.07C643.581 23.7467 641.856 27.7717 638.406 31.145C635.033 34.5183 630.97 36.205 626.216 36.205ZM670.382 60.585H687.402V21.83H716.382V60.585H738.692V84.85H716.382V119.005C716.382 123.528 717.11 127.055 718.567 129.585C720.023 132.038 722.323 133.265 725.467 133.265C727.843 133.265 729.798 132.805 731.332 131.885C732.865 130.888 733.785 130.198 734.092 129.815L744.442 150.745C743.982 151.205 742.487 152.01 739.957 153.16C737.503 154.31 734.322 155.345 730.412 156.265C726.578 157.262 722.247 157.76 717.417 157.76C708.753 157.76 701.585 155.268 695.912 150.285C690.238 145.225 687.402 137.405 687.402 126.825V84.85H670.382V60.585ZM814.956 129.355L842.901 60.585H871.766L807.251 202.84H777.926L799.661 155L760.446 60.585H789.656L814.956 129.355Z" fill="#92FF25" fill-opacity="0.15"/>
</svg>
