<svg width="84" height="91" viewBox="0 0 84 91" fill="none" xmlns="http://www.w3.org/2000/svg">
<path d="M17.9858 10.5653C17.9176 9.87784 17.625 9.34375 17.108 8.96307C16.5909 8.58239 15.8892 8.39204 15.0028 8.39204C14.4006 8.39204 13.892 8.47727 13.4773 8.64773C13.0625 8.8125 12.7443 9.04261 12.5227 9.33807C12.3068 9.63352 12.1989 9.96875 12.1989 10.3438C12.1875 10.6562 12.2528 10.929 12.3949 11.1619C12.5426 11.3949 12.7443 11.5966 13 11.767C13.2557 11.9318 13.5511 12.0767 13.8864 12.2017C14.2216 12.321 14.5795 12.4233 14.9602 12.5085L16.5284 12.8835C17.2898 13.054 17.9886 13.2812 18.625 13.5653C19.2614 13.8494 19.8125 14.1989 20.2784 14.6136C20.7443 15.0284 21.1051 15.517 21.3608 16.0795C21.6222 16.642 21.7557 17.2869 21.7614 18.0142C21.7557 19.0824 21.483 20.0085 20.9432 20.7926C20.4091 21.571 19.6364 22.1761 18.625 22.608C17.6193 23.0341 16.4063 23.2472 14.9858 23.2472C13.5767 23.2472 12.3494 23.0312 11.304 22.5994C10.2642 22.1676 9.4517 21.5284 8.86648 20.6818C8.28693 19.8295 7.98295 18.7756 7.95455 17.5199H11.5256C11.5653 18.1051 11.733 18.5937 12.0284 18.9858C12.3295 19.3722 12.7301 19.6648 13.2301 19.8636C13.7358 20.0568 14.3068 20.1534 14.9432 20.1534C15.5682 20.1534 16.1108 20.0625 16.571 19.8807C17.0369 19.6989 17.3977 19.446 17.6534 19.1222C17.9091 18.7983 18.0369 18.4261 18.0369 18.0057C18.0369 17.6136 17.9205 17.2841 17.6875 17.017C17.4602 16.75 17.125 16.5227 16.6818 16.3352C16.2443 16.1477 15.7074 15.9773 15.071 15.8239L13.1705 15.3466C11.6989 14.9886 10.5369 14.429 9.68466 13.6676C8.83239 12.9062 8.40909 11.8807 8.41477 10.5909C8.40909 9.53409 8.69034 8.6108 9.25852 7.82102C9.83239 7.03125 10.6193 6.41477 11.6193 5.97159C12.6193 5.52841 13.7557 5.30682 15.0284 5.30682C16.3239 5.30682 17.4545 5.52841 18.4205 5.97159C19.392 6.41477 20.1477 7.03125 20.6875 7.82102C21.2273 8.6108 21.5057 9.52557 21.5227 10.5653H17.9858ZM23.5788 8.58807V5.54545H37.9141V8.58807H32.5703V23H28.9226V8.58807H23.5788ZM40.2749 23V5.54545H52.0362V8.58807H43.9652V12.7472H51.4311V15.7898H43.9652V19.9574H52.0703V23H40.2749ZM54.9702 23V5.54545H61.8565C63.1804 5.54545 64.3082 5.7983 65.2401 6.30398C66.1719 6.80398 66.8821 7.5 67.3707 8.39204C67.8651 9.27841 68.1122 10.3011 68.1122 11.4602C68.1122 12.6193 67.8622 13.642 67.3622 14.5284C66.8622 15.4148 66.1378 16.1051 65.1889 16.5994C64.2457 17.0937 63.1037 17.3409 61.7628 17.3409H57.3736V14.3835H61.1662C61.8764 14.3835 62.4616 14.2614 62.9219 14.017C63.3878 13.767 63.7344 13.4233 63.9616 12.9858C64.1946 12.5426 64.3111 12.0341 64.3111 11.4602C64.3111 10.8807 64.1946 10.375 63.9616 9.94318C63.7344 9.50568 63.3878 9.16761 62.9219 8.92898C62.456 8.68466 61.8651 8.5625 61.1491 8.5625H58.6605V23H54.9702Z" fill="#FB3640" fill-opacity="0.7"/>
<path d="M22.0227 77.0227C18.1136 77.0076 14.75 76.0455 11.9318 74.1364C9.12879 72.2273 6.9697 69.4621 5.45455 65.8409C3.95455 62.2197 3.21212 57.8636 3.22727 52.7727C3.22727 47.697 3.97727 43.3712 5.47727 39.7955C6.99242 36.2197 9.15152 33.5 11.9545 31.6364C14.7727 29.7576 18.1288 28.8182 22.0227 28.8182C25.9167 28.8182 29.2652 29.7576 32.0682 31.6364C34.8864 33.5152 37.053 36.2424 38.5682 39.8182C40.0833 43.3788 40.8333 47.697 40.8182 52.7727C40.8182 57.8788 40.0606 62.2424 38.5455 65.8636C37.0455 69.4848 34.8939 72.25 32.0909 74.1591C29.2879 76.0682 25.9318 77.0227 22.0227 77.0227ZM22.0227 68.8636C24.6894 68.8636 26.8182 67.5227 28.4091 64.8409C30 62.1591 30.7879 58.1364 30.7727 52.7727C30.7727 49.2424 30.4091 46.303 29.6818 43.9545C28.9697 41.6061 27.9545 39.8409 26.6364 38.6591C25.3333 37.4773 23.7955 36.8864 22.0227 36.8864C19.3712 36.8864 17.25 38.2121 15.6591 40.8636C14.0682 43.5152 13.2652 47.4848 13.25 52.7727C13.25 56.3485 13.6061 59.3333 14.3182 61.7273C15.0455 64.1061 16.0682 65.8939 17.3864 67.0909C18.7045 68.2727 20.25 68.8636 22.0227 68.8636ZM61.8398 76.6364C58.4458 76.6364 55.4231 76.053 52.7716 74.8864C50.1352 73.7045 48.0519 72.0833 46.5216 70.0227C45.0064 67.947 44.2261 65.553 44.1807 62.8409H54.0898C54.1504 63.9773 54.5216 64.9773 55.2034 65.8409C55.9004 66.6894 56.8246 67.3485 57.9761 67.8182C59.1277 68.2879 60.4231 68.5227 61.8625 68.5227C63.3625 68.5227 64.6883 68.2576 65.8398 67.7273C66.9913 67.197 67.8928 66.4621 68.5443 65.5227C69.1958 64.5833 69.5216 63.5 69.5216 62.2727C69.5216 61.0303 69.1731 59.9318 68.4761 58.9773C67.7943 58.0076 66.8095 57.25 65.5216 56.7045C64.2489 56.1591 62.7337 55.8864 60.9761 55.8864H56.6352V48.6591H60.9761C62.461 48.6591 63.7716 48.4015 64.908 47.8864C66.0595 47.3712 66.9534 46.6591 67.5898 45.75C68.2261 44.8258 68.5443 43.75 68.5443 42.5227C68.5443 41.3561 68.264 40.3333 67.7034 39.4545C67.158 38.5606 66.3852 37.8636 65.3852 37.3636C64.4004 36.8636 63.2489 36.6136 61.9307 36.6136C60.5973 36.6136 59.3777 36.8561 58.2716 37.3409C57.1655 37.8106 56.2792 38.4848 55.6125 39.3636C54.9458 40.2424 54.5898 41.2727 54.5443 42.4545H45.1125C45.158 39.7727 45.9231 37.4091 47.408 35.3636C48.8928 33.3182 50.8928 31.7197 53.408 30.5682C55.9383 29.4015 58.7943 28.8182 61.9761 28.8182C65.1883 28.8182 67.9989 29.4015 70.408 30.5682C72.817 31.7348 74.6883 33.3106 76.0216 35.2955C77.3701 37.2652 78.0367 39.4773 78.0216 41.9318C78.0367 44.5379 77.2261 46.7121 75.5898 48.4545C73.9686 50.197 71.8549 51.303 69.2489 51.7727V52.1364C72.6731 52.5758 75.2792 53.7652 77.067 55.7045C78.8701 57.6288 79.764 60.0379 79.7489 62.9318C79.764 65.5833 78.9989 67.9394 77.4534 70C75.9231 72.0606 73.8095 73.6818 71.1125 74.8636C68.4155 76.0455 65.3246 76.6364 61.8398 76.6364Z" fill="#FB3640" fill-opacity="0.7"/>
</svg>
