<svg width="83" height="91" viewBox="0 0 83 91" fill="none" xmlns="http://www.w3.org/2000/svg">
<path d="M17.9858 10.5653C17.9176 9.87784 17.625 9.34375 17.108 8.96307C16.5909 8.58239 15.8892 8.39204 15.0028 8.39204C14.4006 8.39204 13.892 8.47727 13.4773 8.64773C13.0625 8.8125 12.7443 9.04261 12.5227 9.33807C12.3068 9.63352 12.1989 9.96875 12.1989 10.3438C12.1875 10.6562 12.2528 10.929 12.3949 11.1619C12.5426 11.3949 12.7443 11.5966 13 11.767C13.2557 11.9318 13.5511 12.0767 13.8864 12.2017C14.2216 12.321 14.5795 12.4233 14.9602 12.5085L16.5284 12.8835C17.2898 13.054 17.9886 13.2812 18.625 13.5653C19.2614 13.8494 19.8125 14.1989 20.2784 14.6136C20.7443 15.0284 21.1051 15.517 21.3608 16.0795C21.6222 16.642 21.7557 17.2869 21.7614 18.0142C21.7557 19.0824 21.483 20.0085 20.9432 20.7926C20.4091 21.571 19.6364 22.1761 18.625 22.608C17.6193 23.0341 16.4063 23.2472 14.9858 23.2472C13.5767 23.2472 12.3494 23.0312 11.304 22.5994C10.2642 22.1676 9.4517 21.5284 8.86648 20.6818C8.28693 19.8295 7.98295 18.7756 7.95455 17.5199H11.5256C11.5653 18.1051 11.733 18.5937 12.0284 18.9858C12.3295 19.3722 12.7301 19.6648 13.2301 19.8636C13.7358 20.0568 14.3068 20.1534 14.9432 20.1534C15.5682 20.1534 16.1108 20.0625 16.571 19.8807C17.0369 19.6989 17.3977 19.446 17.6534 19.1222C17.9091 18.7983 18.0369 18.4261 18.0369 18.0057C18.0369 17.6136 17.9205 17.2841 17.6875 17.017C17.4602 16.75 17.125 16.5227 16.6818 16.3352C16.2443 16.1477 15.7074 15.9773 15.071 15.8239L13.1705 15.3466C11.6989 14.9886 10.5369 14.429 9.68466 13.6676C8.83239 12.9062 8.40909 11.8807 8.41477 10.5909C8.40909 9.53409 8.69034 8.6108 9.25852 7.82102C9.83239 7.03125 10.6193 6.41477 11.6193 5.97159C12.6193 5.52841 13.7557 5.30682 15.0284 5.30682C16.3239 5.30682 17.4545 5.52841 18.4205 5.97159C19.392 6.41477 20.1477 7.03125 20.6875 7.82102C21.2273 8.6108 21.5057 9.52557 21.5227 10.5653H17.9858ZM23.5788 8.58807V5.54545H37.9141V8.58807H32.5703V23H28.9226V8.58807H23.5788ZM40.2749 23V5.54545H52.0362V8.58807H43.9652V12.7472H51.4311V15.7898H43.9652V19.9574H52.0703V23H40.2749ZM54.9702 23V5.54545H61.8565C63.1804 5.54545 64.3082 5.7983 65.2401 6.30398C66.1719 6.80398 66.8821 7.5 67.3707 8.39204C67.8651 9.27841 68.1122 10.3011 68.1122 11.4602C68.1122 12.6193 67.8622 13.642 67.3622 14.5284C66.8622 15.4148 66.1378 16.1051 65.1889 16.5994C64.2457 17.0937 63.1037 17.3409 61.7628 17.3409H57.3736V14.3835H61.1662C61.8764 14.3835 62.4616 14.2614 62.9219 14.017C63.3878 13.767 63.7344 13.4233 63.9616 12.9858C64.1946 12.5426 64.3111 12.0341 64.3111 11.4602C64.3111 10.8807 64.1946 10.375 63.9616 9.94318C63.7344 9.50568 63.3878 9.16761 62.9219 8.92898C62.456 8.68466 61.8651 8.5625 61.1491 8.5625H58.6605V23H54.9702Z" fill="#FB3640" fill-opacity="0.7"/>
<path d="M22.0227 77.0227C18.1136 77.0076 14.75 76.0455 11.9318 74.1364C9.12879 72.2273 6.9697 69.4621 5.45455 65.8409C3.95455 62.2197 3.21212 57.8636 3.22727 52.7727C3.22727 47.697 3.97727 43.3712 5.47727 39.7955C6.99242 36.2197 9.15152 33.5 11.9545 31.6364C14.7727 29.7576 18.1288 28.8182 22.0227 28.8182C25.9167 28.8182 29.2652 29.7576 32.0682 31.6364C34.8864 33.5152 37.053 36.2424 38.5682 39.8182C40.0833 43.3788 40.8333 47.697 40.8182 52.7727C40.8182 57.8788 40.0606 62.2424 38.5455 65.8636C37.0455 69.4848 34.8939 72.25 32.0909 74.1591C29.2879 76.0682 25.9318 77.0227 22.0227 77.0227ZM22.0227 68.8636C24.6894 68.8636 26.8182 67.5227 28.4091 64.8409C30 62.1591 30.7879 58.1364 30.7727 52.7727C30.7727 49.2424 30.4091 46.303 29.6818 43.9545C28.9697 41.6061 27.9545 39.8409 26.6364 38.6591C25.3333 37.4773 23.7955 36.8864 22.0227 36.8864C19.3712 36.8864 17.25 38.2121 15.6591 40.8636C14.0682 43.5152 13.2652 47.4848 13.25 52.7727C13.25 56.3485 13.6061 59.3333 14.3182 61.7273C15.0455 64.1061 16.0682 65.8939 17.3864 67.0909C18.7045 68.2727 20.25 68.8636 22.0227 68.8636ZM61.6352 76.6364C58.4231 76.6364 55.5595 76.0455 53.0443 74.8636C50.5443 73.6818 48.5595 72.053 47.0898 69.9773C45.6201 67.9015 44.8549 65.5227 44.7943 62.8409H54.3398C54.4458 64.6439 55.2034 66.1061 56.6125 67.2273C58.0216 68.3485 59.6958 68.9091 61.6352 68.9091C63.1807 68.9091 64.5443 68.5682 65.7261 67.8864C66.9231 67.1894 67.8549 66.2273 68.5216 65C69.2034 63.7576 69.5443 62.3333 69.5443 60.7273C69.5443 59.0909 69.1958 57.6515 68.4989 56.4091C67.817 55.1667 66.8701 54.197 65.658 53.5C64.4458 52.803 63.0595 52.447 61.4989 52.4318C60.1352 52.4318 58.8095 52.7121 57.5216 53.2727C56.2489 53.8333 55.2564 54.5985 54.5443 55.5682L45.7943 54L47.9989 29.4545H76.4534V37.5H56.1125L54.908 49.1591H55.1807C55.9989 48.0076 57.2337 47.053 58.8852 46.2955C60.5367 45.5379 62.3852 45.1591 64.4307 45.1591C67.2337 45.1591 69.7337 45.8182 71.9307 47.1364C74.1277 48.4545 75.8625 50.2652 77.1352 52.5682C78.408 54.8561 79.0367 57.4924 79.0216 60.4773C79.0367 63.6136 78.3095 66.4015 76.8398 68.8409C75.3852 71.2652 73.3473 73.1742 70.7261 74.5682C68.1201 75.947 65.0898 76.6364 61.6352 76.6364Z" fill="#FB3640" fill-opacity="0.7"/>
</svg>
