<svg width="636" height="203" viewBox="0 0 636 203" fill="none" xmlns="http://www.w3.org/2000/svg">
<path d="M91.2 0.199994H119.95V93.81C119.95 106.307 117.458 117.117 112.475 126.24C107.568 135.363 100.63 142.417 91.66 147.4C82.7667 152.307 72.2633 154.76 60.15 154.76C47.96 154.76 37.3417 152.307 28.295 147.4C19.325 142.417 12.3483 135.363 7.365 126.24C2.45833 117.117 0.00500057 106.307 0.00500057 93.81V0.199994H28.64V92.315C28.64 99.9817 29.9433 106.537 32.55 111.98C35.2333 117.347 38.9517 121.448 43.705 124.285C48.4583 127.045 53.94 128.425 60.15 128.425C66.2833 128.425 71.6883 127.045 76.365 124.285C81.0417 121.448 84.6833 117.347 87.29 111.98C89.8967 106.537 91.2 99.9817 91.2 92.315V0.199994ZM196.853 54.825C202.526 54.825 207.778 55.3617 212.608 56.435C217.438 57.4317 221.501 58.5817 224.798 59.885C228.171 61.1883 230.394 62.3 231.468 63.22L221.463 80.815C219.929 79.5883 217.169 78.1317 213.183 76.445C209.273 74.7583 204.903 73.915 200.073 73.915C195.703 73.915 192.023 74.6817 189.033 76.215C186.043 77.6717 184.548 79.895 184.548 82.885C184.548 85.875 186.158 88.2517 189.378 90.015C192.598 91.7783 197.083 93.3117 202.833 94.615C207.663 95.6117 212.416 97.145 217.093 99.215C221.769 101.208 225.641 104.122 228.708 107.955C231.774 111.712 233.308 116.733 233.308 123.02C233.308 129.23 231.966 134.405 229.283 138.545C226.676 142.608 223.188 145.828 218.818 148.205C214.448 150.582 209.656 152.268 204.443 153.265C199.229 154.262 194.054 154.76 188.918 154.76C182.248 154.76 176.383 154.108 171.323 152.805C166.263 151.578 162.084 150.16 158.788 148.55C155.568 146.863 153.268 145.445 151.888 144.295L161.893 124.745C163.886 126.508 167.144 128.463 171.668 130.61C176.268 132.68 181.213 133.715 186.503 133.715C192.023 133.715 196.354 132.757 199.498 130.84C202.718 128.923 204.328 126.355 204.328 123.135C204.328 120.758 203.561 118.842 202.028 117.385C200.494 115.852 198.386 114.587 195.703 113.59C193.019 112.593 189.876 111.712 186.273 110.945C182.976 110.255 179.603 109.258 176.153 107.955C172.703 106.575 169.483 104.773 166.493 102.55C163.503 100.327 161.088 97.5667 159.248 94.27C157.408 90.8967 156.488 86.8717 156.488 82.195C156.488 76.215 158.404 71.2317 162.238 67.245C166.071 63.1817 171.054 60.115 177.188 58.045C183.321 55.8983 189.876 54.825 196.853 54.825ZM339.55 152V135.555C338.86 137.242 337.096 139.618 334.26 142.685C331.423 145.752 327.59 148.55 322.76 151.08C318.006 153.533 312.41 154.76 305.97 154.76C296.923 154.76 288.911 152.613 281.935 148.32C274.958 143.95 269.476 138.008 265.49 130.495C261.58 122.905 259.625 114.357 259.625 104.85C259.625 95.3433 261.58 86.8333 265.49 79.32C269.476 71.73 274.958 65.75 281.935 61.38C288.911 57.01 296.923 54.825 305.97 54.825C312.256 54.825 317.7 55.8983 322.3 58.045C326.976 60.115 330.733 62.5683 333.57 65.405C336.483 68.165 338.361 70.6567 339.205 72.88V57.585H368.185V152H339.55ZM288.26 104.85C288.26 110.14 289.448 114.817 291.825 118.88C294.201 122.867 297.345 125.972 301.255 128.195C305.165 130.418 309.42 131.53 314.02 131.53C318.85 131.53 323.143 130.418 326.9 128.195C330.656 125.895 333.608 122.752 335.755 118.765C337.978 114.702 339.09 110.063 339.09 104.85C339.09 99.6367 337.978 95.0367 335.755 91.05C333.608 86.9867 330.656 83.805 326.9 81.505C323.143 79.205 318.85 78.055 314.02 78.055C309.42 78.055 305.165 79.205 301.255 81.505C297.345 83.7283 294.201 86.8717 291.825 90.935C289.448 94.9217 288.26 99.56 288.26 104.85ZM451.504 202.485C444.604 202.485 437.972 201.833 431.609 200.53C425.322 199.227 419.611 197.195 414.474 194.435C409.337 191.675 405.044 188.072 401.594 183.625L419.304 165.685C420.914 167.755 422.984 169.825 425.514 171.895C428.121 174.042 431.417 175.805 435.404 177.185C439.391 178.642 444.374 179.37 450.354 179.37C456.027 179.37 460.896 178.258 464.959 176.035C469.099 173.888 472.281 170.822 474.504 166.835C476.804 162.848 477.954 158.21 477.954 152.92V150.275H506.589V154.645C506.589 165.072 504.136 173.85 499.229 180.98C494.322 188.11 487.729 193.477 479.449 197.08C471.169 200.683 461.854 202.485 451.504 202.485ZM477.954 152V135.555C477.264 137.242 475.501 139.618 472.664 142.685C469.827 145.752 465.994 148.55 461.164 151.08C456.411 153.533 450.814 154.76 444.374 154.76C435.327 154.76 427.316 152.613 420.339 148.32C413.362 143.95 407.881 138.008 403.894 130.495C399.984 122.905 398.029 114.357 398.029 104.85C398.029 95.3433 399.984 86.8333 403.894 79.32C407.881 71.73 413.362 65.75 420.339 61.38C427.316 57.01 435.327 54.825 444.374 54.825C450.661 54.825 456.104 55.8983 460.704 58.045C465.381 60.115 469.137 62.5683 471.974 65.405C474.887 68.165 476.766 70.6567 477.609 72.88V57.585H506.589V152H477.954ZM426.664 104.85C426.664 110.14 427.852 114.817 430.229 118.88C432.606 122.867 435.749 125.972 439.659 128.195C443.569 130.418 447.824 131.53 452.424 131.53C457.254 131.53 461.547 130.418 465.304 128.195C469.061 125.895 472.012 122.752 474.159 118.765C476.382 114.702 477.494 110.063 477.494 104.85C477.494 99.6367 476.382 95.0367 474.159 91.05C472.012 86.9867 469.061 83.805 465.304 81.505C461.547 79.205 457.254 78.055 452.424 78.055C447.824 78.055 443.569 79.205 439.659 81.505C435.749 83.7283 432.606 86.8717 430.229 90.935C427.852 94.9217 426.664 99.56 426.664 104.85ZM564.253 111.29C564.483 115.583 565.633 119.417 567.703 122.79C569.773 126.163 572.763 128.808 576.673 130.725C580.659 132.642 585.413 133.6 590.933 133.6C595.916 133.6 600.286 132.987 604.043 131.76C607.876 130.533 611.096 129.038 613.703 127.275C616.386 125.435 618.379 123.672 619.683 121.985L631.758 139.925C629.611 142.608 626.736 145.1 623.133 147.4C619.606 149.623 615.083 151.387 609.563 152.69C604.119 154.07 597.296 154.76 589.093 154.76C578.743 154.76 569.658 152.728 561.838 148.665C554.018 144.602 547.923 138.737 543.553 131.07C539.183 123.403 536.998 114.28 536.998 103.7C536.998 94.5 538.953 86.22 542.863 78.86C546.773 71.4233 552.446 65.5583 559.883 61.265C567.396 56.9717 576.404 54.825 586.908 54.825C596.798 54.825 605.346 56.7417 612.553 60.575C619.836 64.3317 625.471 69.8517 629.458 77.135C633.444 84.4183 635.438 93.3117 635.438 103.815C635.438 104.428 635.399 105.693 635.323 107.61C635.323 109.45 635.246 110.677 635.093 111.29H564.253ZM608.068 93.235C607.991 90.7817 607.224 88.1367 605.768 85.3C604.388 82.4633 602.203 80.0483 599.213 78.055C596.223 76.0617 592.236 75.065 587.253 75.065C582.269 75.065 578.168 76.0233 574.948 77.94C571.804 79.8567 569.428 82.2333 567.818 85.07C566.208 87.83 565.288 90.5517 565.058 93.235H608.068Z" fill="#92FF25" fill-opacity="0.15"/>
</svg>
