<svg width="643" height="164" viewBox="0 0 643 164" fill="none" xmlns="http://www.w3.org/2000/svg">
<path d="M91.2 9.19999H119.95V102.81C119.95 115.307 117.458 126.117 112.475 135.24C107.568 144.363 100.63 151.417 91.66 156.4C82.7667 161.307 72.2633 163.76 60.15 163.76C47.96 163.76 37.3417 161.307 28.295 156.4C19.325 151.417 12.3483 144.363 7.365 135.24C2.45833 126.117 0.00500057 115.307 0.00500057 102.81V9.19999H28.64V101.315C28.64 108.982 29.9433 115.537 32.55 120.98C35.2333 126.347 38.9517 130.448 43.705 133.285C48.4583 136.045 53.94 137.425 60.15 137.425C66.2833 137.425 71.6883 136.045 76.365 133.285C81.0417 130.448 84.6833 126.347 87.29 120.98C89.8967 115.537 91.2 108.982 91.2 101.315V9.19999ZM196.853 63.825C202.526 63.825 207.778 64.3617 212.608 65.435C217.438 66.4317 221.501 67.5817 224.798 68.885C228.171 70.1883 230.394 71.3 231.468 72.22L221.463 89.815C219.929 88.5883 217.169 87.1317 213.183 85.445C209.273 83.7583 204.903 82.915 200.073 82.915C195.703 82.915 192.023 83.6817 189.033 85.215C186.043 86.6717 184.548 88.895 184.548 91.885C184.548 94.875 186.158 97.2517 189.378 99.015C192.598 100.778 197.083 102.312 202.833 103.615C207.663 104.612 212.416 106.145 217.093 108.215C221.769 110.208 225.641 113.122 228.708 116.955C231.774 120.712 233.308 125.733 233.308 132.02C233.308 138.23 231.966 143.405 229.283 147.545C226.676 151.608 223.188 154.828 218.818 157.205C214.448 159.582 209.656 161.268 204.443 162.265C199.229 163.262 194.054 163.76 188.918 163.76C182.248 163.76 176.383 163.108 171.323 161.805C166.263 160.578 162.084 159.16 158.788 157.55C155.568 155.863 153.268 154.445 151.888 153.295L161.893 133.745C163.886 135.508 167.144 137.463 171.668 139.61C176.268 141.68 181.213 142.715 186.503 142.715C192.023 142.715 196.354 141.757 199.498 139.84C202.718 137.923 204.328 135.355 204.328 132.135C204.328 129.758 203.561 127.842 202.028 126.385C200.494 124.852 198.386 123.587 195.703 122.59C193.019 121.593 189.876 120.712 186.273 119.945C182.976 119.255 179.603 118.258 176.153 116.955C172.703 115.575 169.483 113.773 166.493 111.55C163.503 109.327 161.088 106.567 159.248 103.27C157.408 99.8967 156.488 95.8717 156.488 91.195C156.488 85.215 158.404 80.2317 162.238 76.245C166.071 72.1817 171.054 69.115 177.188 67.045C183.321 64.8983 189.876 63.825 196.853 63.825ZM286.995 120.29C287.225 124.583 288.375 128.417 290.445 131.79C292.515 135.163 295.505 137.808 299.415 139.725C303.401 141.642 308.155 142.6 313.675 142.6C318.658 142.6 323.028 141.987 326.785 140.76C330.618 139.533 333.838 138.038 336.445 136.275C339.128 134.435 341.121 132.672 342.425 130.985L354.5 148.925C352.353 151.608 349.478 154.1 345.875 156.4C342.348 158.623 337.825 160.387 332.305 161.69C326.861 163.07 320.038 163.76 311.835 163.76C301.485 163.76 292.4 161.728 284.58 157.665C276.76 153.602 270.665 147.737 266.295 140.07C261.925 132.403 259.74 123.28 259.74 112.7C259.74 103.5 261.695 95.22 265.605 87.86C269.515 80.4233 275.188 74.5583 282.625 70.265C290.138 65.9717 299.146 63.825 309.65 63.825C319.54 63.825 328.088 65.7417 335.295 69.575C342.578 73.3317 348.213 78.8517 352.2 86.135C356.186 93.4183 358.18 102.312 358.18 112.815C358.18 113.428 358.141 114.693 358.065 116.61C358.065 118.45 357.988 119.677 357.835 120.29H286.995ZM330.81 102.235C330.733 99.7817 329.966 97.1367 328.51 94.3C327.13 91.4633 324.945 89.0483 321.955 87.055C318.965 85.0617 314.978 84.065 309.995 84.065C305.011 84.065 300.91 85.0233 297.69 86.94C294.546 88.8567 292.17 91.2333 290.56 94.07C288.95 96.83 288.03 99.5517 287.8 102.235H330.81ZM380.571 66.585H397.591V40.94C397.591 31.5867 399.431 23.92 403.111 17.94C406.791 11.8833 411.544 7.39833 417.371 4.48499C423.197 1.49499 429.216 -1.09673e-05 435.426 -1.09673e-05C443.016 -1.09673e-05 448.842 1.03499 452.906 3.105C456.969 5.17499 459.461 6.66999 460.381 7.58999L449.111 29.21C448.727 28.6733 447.654 27.83 445.891 26.68C444.204 25.4533 441.942 24.84 439.106 24.84C437.112 24.84 435.157 25.3383 433.241 26.335C431.324 27.3317 429.752 29.1717 428.526 31.855C427.299 34.5383 426.686 38.4867 426.686 43.7V66.585H451.411V90.85H426.686V161H397.591V90.85H380.571V66.585ZM506.328 111.78C506.328 120.213 508.015 126.96 511.388 132.02C514.762 137.003 520.205 139.495 527.718 139.495C535.308 139.495 540.79 137.003 544.163 132.02C547.537 126.96 549.223 120.213 549.223 111.78V66.585H577.973V115.115C577.973 124.852 576.018 133.4 572.108 140.76C568.198 148.043 562.487 153.717 554.973 157.78C547.537 161.767 538.452 163.76 527.718 163.76C517.062 163.76 507.977 161.767 500.463 157.78C493.027 153.717 487.353 148.043 483.443 140.76C479.533 133.4 477.578 124.852 477.578 115.115V66.585H506.328V111.78ZM642.645 161H613.32V2.75999H642.645V161Z" fill="#92FF25" fill-opacity="0.5"/>
</svg>
